<svg xmlns="http://www.w3.org/2000/svg" xml:space="preserve" viewBox="0 0 280.027 280.027"><path d="M52.505 35.003h35.003c4.839 0 8.751 3.929 8.751 8.768v175a8.743 8.743 0 0 1-8.751 8.751H52.505a8.743 8.743 0 0 1-8.751-8.751V43.763c0-4.83 3.912-8.76 8.751-8.76z" style="fill:#3f95d4"/><path d="M61.256 218.771V43.763c0-4.83 3.912-8.76 8.751-8.76H52.505c-4.839 0-8.751 3.929-8.751 8.76v175.008a8.743 8.743 0 0 0 8.751 8.751h17.502a8.748 8.748 0 0 1-8.751-8.751z" style="fill:#367fb4"/><path d="M0 227.522h280.027v52.505H0v-52.505z" style="fill:#d99666"/><path d="M43.754 166.266h52.505v35.021H43.754v-35.021z" style="fill:#f7cb8b"/><path d="M105.01 0h52.505c4.839 0 8.751 3.929 8.751 8.768v210.003a8.743 8.743 0 0 1-8.751 8.751H105.01a8.743 8.743 0 0 1-8.751-8.751V8.76c0-4.831 3.912-8.76 8.751-8.76z" style="fill:#349886"/><path d="M122.512 192.528h17.502V70.007h-17.502v122.521zm0-157.525v17.502h17.502V35.003h-17.502z" style="fill:#9accc3"/><path d="M175.017 52.505h52.505c4.839 0 8.751 3.929 8.751 8.751v157.515a8.743 8.743 0 0 1-8.751 8.751h-52.505a8.743 8.743 0 0 1-8.751-8.751V61.256c0-4.822 3.912-8.751 8.751-8.751z" style="fill:#e2574c"/><path d="M43.754 166.266h17.502v35.021H43.754z" style="fill:#d2ad77"/><path d="M113.761 218.771V8.76c0-4.83 3.912-8.76 8.751-8.76H105.01c-4.839 0-8.751 3.929-8.751 8.76v210.012a8.743 8.743 0 0 0 8.751 8.751h17.502a8.75 8.75 0 0 1-8.751-8.752z" style="fill:#2c8172"/><path d="M183.768 218.771V61.256c0-4.822 3.912-8.751 8.751-8.751h-17.502c-4.839 0-8.751 3.929-8.751 8.751v157.515a8.743 8.743 0 0 0 8.751 8.751h17.502a8.748 8.748 0 0 1-8.751-8.751z" style="fill:#c04a40"/><path d="M166.266 140.014h70.007V105.01h-70.007v35.004zm0-52.505v8.768h70.007v-8.768h-70.007z" style="fill:#f7cb8b"/><path d="M166.266 87.509h17.502v8.768h-17.502zM166.266 105.01h17.502v35.003h-17.502z" style="fill:#d2ad77"/></svg>